<!-- Generated by IcoMoon.io -->
<svg version="1.1" xmlns="http://www.w3.org/2000/svg" width="32" height="32" viewBox="0 0 32 32">
<title>facebook-logo</title>
<path  fill="white" d="M23.999 0.007l-4.15-0.007c-4.662 0-7.675 3.091-7.675 7.875v3.631h-4.172c-0.36 0-0.652 0.292-0.652 0.652 0 0 0 0 0 0v-0 5.261c0 0.36 0.292 0.652 0.652 0.652v0h4.172v13.275c0 0.36 0.292 0.652 0.652 0.652h5.444c0.36 0 0.652-0.292 0.652-0.652v0-13.275h4.878c0.36 0 0.652-0.292 0.652-0.652v0l0.002-5.261c-0-0.36-0.292-0.652-0.653-0.653h-4.88v-3.078c0-1.479 0.353-2.23 2.28-2.23l2.795-0.001c0.36-0 0.652-0.292 0.652-0.652v0-4.885c0 0 0 0 0 0 0-0.36-0.292-0.652-0.651-0.652h-0z"></path>
</svg>
